<svg width="105" height="95" viewBox="0 0 105 95" fill="none" xmlns="http://www.w3.org/2000/svg">
<path d="M35.265 0.0448102C32.0962 -0.16894 28.98 0.401061 26.25 1.97606C22.6087 4.07606 20.1825 7.66481 18.8812 11.8011C17.58 15.9261 17.28 20.6886 17.7563 25.8898C17.8013 26.4148 17.895 26.9661 17.9587 27.5023C17.4637 27.7123 16.9387 27.9073 16.4587 28.1323C11.7187 30.3186 7.7475 32.9586 4.81875 36.1498C1.89375 39.3448 0 43.2373 0 47.4448C0 51.6486 1.89375 55.5448 4.81875 58.7398C7.74375 61.9311 11.7187 64.5711 16.4587 66.7573C16.9387 66.9823 17.4637 67.1773 17.9587 67.3873C17.895 67.9236 17.8013 68.4748 17.7525 68.9998C17.28 74.2011 17.58 78.9598 18.8812 83.0923C20.1825 87.2248 22.6087 90.8098 26.25 92.9136C29.8913 95.0136 34.2075 95.3248 38.4375 94.3873C42.6675 93.4498 46.9387 91.3236 51.2025 88.3123C51.6337 88.0123 52.065 87.6561 52.5 87.3336C52.9313 87.6561 53.3625 88.0086 53.7975 88.3123C58.0613 91.3236 62.3325 93.4498 66.5625 94.3873C70.7925 95.3248 75.1087 95.0173 78.75 92.9136C82.3913 90.8136 84.8175 87.2248 86.1188 83.0886C87.42 78.9636 87.72 74.2011 87.2437 68.9998C87.1987 68.4748 87.105 67.9236 87.0413 67.3873C87.5363 67.1773 88.0613 66.9823 88.5413 66.7573C93.2813 64.5711 97.2525 61.9311 100.181 58.7398C103.106 55.5448 105 51.6523 105 47.4448C105 43.2411 103.106 39.3448 100.181 36.1498C97.2563 32.9586 93.2813 30.3186 88.5413 28.1323C88.0613 27.9073 87.5363 27.7123 87.0413 27.5023C87.105 26.9661 87.1988 26.4148 87.2475 25.8898C87.72 20.6886 87.42 15.9298 86.1188 11.7973C84.8175 7.66481 82.3913 4.07981 78.75 1.97606C75.1087 -0.123939 70.7925 -0.435189 66.5625 0.502311C62.3325 1.43981 58.0613 3.56606 53.7975 6.57731C53.3663 6.87731 52.935 7.23356 52.5 7.55606C52.0687 7.23356 51.6375 6.88106 51.2025 6.57731C46.9387 3.56606 42.6675 1.43981 38.4375 0.502311C37.3932 0.268293 36.3327 0.117847 35.265 0.0448102ZM34.7775 7.51481C35.415 7.55981 36.0938 7.66481 36.8175 7.82981C39.6525 8.45606 43.0462 10.0461 46.6275 12.5361C43.4832 15.529 40.5687 18.7543 37.9088 22.1848C33.6142 22.7705 29.3698 23.6781 25.2112 24.8998C24.8437 20.5573 25.1587 16.8223 26.0287 14.0548C26.925 11.2198 28.26 9.47981 30 8.47106C31.305 7.72106 32.8575 7.36856 34.7738 7.51481H34.7775ZM70.2262 7.51481C72.1387 7.36856 73.695 7.72106 75 8.47106C76.74 9.47606 78.075 11.2198 78.9713 14.0548C79.8413 16.8223 80.1562 20.5573 79.7887 24.8998C75.6302 23.6781 71.3858 22.7705 67.0913 22.1848C64.4313 18.7543 61.5168 15.529 58.3725 12.5361C61.9538 10.0461 65.3475 8.45606 68.1825 7.82981C68.9062 7.66856 69.585 7.55981 70.2262 7.51481ZM52.5 17.2911C53.8163 18.5098 55.1325 19.8636 56.4487 21.2811C55.1331 21.2289 53.8167 21.2002 52.5 21.1948C51.1688 21.1948 49.86 21.2361 48.5512 21.2811C49.8637 19.8636 51.1837 18.5098 52.5 17.2911ZM52.5 28.6948C56.1187 28.6948 59.625 28.9086 62.9963 29.2648C65.0642 32.0963 66.9807 35.0354 68.7375 38.0698C70.545 41.2011 72.1125 44.3436 73.4925 47.4448C72.0743 50.6516 70.4871 53.781 68.7375 56.8198C66.9807 59.8542 65.0642 62.7933 62.9963 65.6248C59.6213 65.9811 56.1187 66.1948 52.5 66.1948C48.8813 66.1948 45.375 65.9811 42.0037 65.6248C39.9358 62.7933 38.0193 59.8542 36.2625 56.8198C34.455 53.6886 32.8875 50.5461 31.5075 47.4448C32.8838 44.3436 34.455 41.2011 36.2625 38.0698C38.07 34.9386 40.0087 32.0061 42.0037 29.2648C45.49 28.8895 48.9936 28.6992 52.5 28.6948ZM31.815 30.9448C31.1213 32.0511 30.4312 33.1648 29.7675 34.3198C29.1145 35.4635 28.4819 36.6187 27.87 37.7848C27.3075 35.9993 26.8134 34.193 26.3887 32.3698C28.1025 31.8411 29.9325 31.3723 31.815 30.9448ZM73.185 30.9448C75.0675 31.3723 76.8975 31.8411 78.6112 32.3698C78.2137 34.1211 77.7 35.9398 77.13 37.7848C76.5181 36.6187 75.8855 35.4635 75.2325 34.3198C74.57 33.1828 73.8874 32.0576 73.185 30.9448ZM19.3275 35.0811C20.2875 39.0748 21.6112 43.2186 23.3287 47.4448C21.6867 51.4599 20.3492 55.5928 19.3275 59.8086C15.3862 57.9523 12.3075 55.8073 10.35 53.6698C8.34375 51.4798 7.5 49.4548 7.5 47.4448C7.5 45.4348 8.34375 43.4098 10.35 41.2198C12.3075 39.0823 15.3862 36.9373 19.3275 35.0811ZM85.6725 35.0811C89.6138 36.9373 92.6925 39.0823 94.65 41.2198C96.6563 43.4098 97.5 45.4348 97.5 47.4448C97.5 49.4548 96.6563 51.4798 94.65 53.6698C92.6925 55.8073 89.6138 57.9523 85.6725 59.8086C84.6508 55.5928 83.3133 51.4599 81.6712 47.4448C83.3121 43.4294 84.6496 39.2965 85.6725 35.0811ZM52.5 36.1948C46.3313 36.1948 41.25 41.2761 41.25 47.4448C41.25 53.6136 46.3313 58.6948 52.5 58.6948C58.6687 58.6948 63.75 53.6136 63.75 47.4448C63.75 41.2761 58.6687 36.1948 52.5 36.1948ZM27.87 57.1048C28.4813 58.2598 29.1 59.4148 29.7638 60.5698C30.4313 61.7248 31.1213 62.8386 31.815 63.9448C29.9325 63.5173 28.1025 63.0486 26.3887 62.5198C26.7862 60.7686 27.3 58.9498 27.87 57.1048ZM77.13 57.1048C77.7 58.9498 78.2175 60.7686 78.6112 62.5198C76.8975 63.0486 75.0675 63.5173 73.185 63.9448C73.8788 62.8386 74.5688 61.7248 75.2363 60.5698C75.9 59.4148 76.5188 58.2598 77.13 57.1048ZM25.2112 69.9898C29.1487 71.1523 33.3975 72.0823 37.9088 72.7048C40.57 76.1342 43.4844 79.3595 46.6275 82.3536C43.0462 84.8436 39.6525 86.4336 36.8175 87.0598C33.9188 87.7048 31.74 87.4198 30 86.4186C28.26 85.4136 26.925 83.6698 26.0287 80.8348C25.1587 78.0673 24.8437 74.3323 25.2112 69.9898ZM79.7887 69.9898C80.1562 74.3323 79.8413 78.0673 78.9713 80.8348C78.075 83.6698 76.74 85.4098 75 86.4186C73.26 87.4198 71.0812 87.7048 68.1825 87.0598C65.3475 86.4336 61.9538 84.8436 58.3725 82.3536C61.5168 79.3607 64.4313 76.1353 67.0913 72.7048C71.3858 72.1191 75.6302 71.2116 79.7887 69.9898ZM48.5512 73.6086C49.86 73.6536 51.1688 73.6948 52.5 73.6948C53.8312 73.6948 55.14 73.6536 56.4487 73.6086C55.1362 75.0261 53.8163 76.3798 52.5 77.5986C51.1334 76.3194 49.8162 74.9884 48.5512 73.6086Z" fill="#149ECA"/>
</svg>
